<?xml version="1.0" encoding="iso-8859-1"?>
<!-- Generator: Adobe Illustrator 16.0.0, SVG Export Plug-In . SVG Version: 6.00 Build 0)  -->
<!DOCTYPE svg PUBLIC "-//W3C//DTD SVG 1.1//EN" "http://www.w3.org/Graphics/SVG/1.1/DTD/svg11.dtd">
<svg version="1.1" id="Capa_1" xmlns="http://www.w3.org/2000/svg" xmlns:xlink="http://www.w3.org/1999/xlink" x="0px" y="0px"
	 width="930.006px" height="930.006px" viewBox="0 0 930.006 930.006" style="enable-background:new 0 0 930.006 930.006;"
	 xml:space="preserve">
<g>
	<path d="M155.909,508.3c6.9,9,17.3,13.7,27.8,13.7c0.4,0,0.8,0,1.2,0l-59.9,170c-3.4,9.8,3.8,20,14.1,20h68.6v170.2
		c0,25.8,20.4,47.399,46.2,47.8c26.3,0.4,47.8-20.8,47.8-47V712h22.7v170.2c0,25.8,20.4,47.399,46.2,47.8
		c26.3,0.4,47.8-20.8,47.8-47V712h68.6c10.301,0,17.601-10.2,14.101-20l-82.8-235V351.4l62.1,35.6c5.4,3.1,11.4,4.6,17.4,4.6
		c5.1,0,10.3-1.1,15-3.399c10.399-4.9,17.699-14.601,19.5-26l18.899-115.5c-5.3,4.8-12.399,7.8-20.2,7.8h-7.699
		c-13.4,0-25.101-8.8-28.801-21.7l-5.6-19.6c-2.7,4-4.5,8.6-5.4,13.7l-12.1,74.1c0,0-65.1-33.1-96.401-50.4
		c-18.899-10.5-38.899-20.3-62.199-20.3c-19.801,0-38.9,7.2-56.8,16.4c-0.1,0-0.2,0.1-0.2,0.1l-177.5,93
		c-9.1,4.8-15.7,13.4-17.9,23.4c-2.2,10.1,0.1,20.6,6.4,28.8L155.909,508.3z M207.809,351.4V457l0,0l-59.8-74.3L207.809,351.4z"/>
	<path d="M743.81,19.7c-1,0-2.101,0.1-3.101,0.4l-241.8,64.1h-32.5c-6.1,0-11,4.9-11,11v49.3c0,6.1,4.9,11,11,11l26,0.1l12.9,44.6
		l7.899,27.4c1.4,4.7,5.7,8,10.601,8h7.699c6.101,0,11-4.9,11-11v-17.4v-44.7l199.2,41c0.8,0.2,1.5,0.2,2.2,0.2c5.9,0,11-4.8,11-11
		V24.5C754.81,18.2,749.709,19.7,743.81,19.7z"/>
	<path d="M794.11,113.7c0.1,7.1,5.899,12.8,13,12.8c0.1,0,0.1,0,0.2,0l50.3-0.7c7.2-0.1,12.899-6,12.8-13.2
		c-0.1-7.2-6-12.9-13.2-12.8l-50.3,0.7C799.709,100.6,794.009,106.5,794.11,113.7z"/>
	<path d="M825.91,17.8l-41.3,30.9c-5.3,4.8-5.8,13-1,18.3c2.6,2.8,6.1,4.3,9.6,4.3c3.101,0,6.2-1.1,8.7-3.3l41.3-37.1
		c5.3-4.8,5.8-6.7,1-12.1C839.41,13.4,831.209,13,825.91,17.8z"/>
	<path d="M784.81,179.8l41.3,35.8c2.5,2.1,5.5,3.2,8.5,3.2c3.6,0,7.2-1.5,9.8-4.5c4.7-5.4,4.1-13.6-1.3-18.3l-41.3-35.8
		c-5.4-4.7-13.601-4.1-18.301,1.3C778.81,166.9,779.41,175.1,784.81,179.8z"/>
	<path d="M437.209,191c-8.7-4.7-27.8-18.2-27.8-46c0-36,9-145-95.5-145s-95.5,109-95.5,145c0,27.8-19.1,41.3-27.8,46
		c-2.6,1.4-3.8,4.4-2.9,7.1c5.8,18.6,20.4,24.3,36.1,24.3c24.1,0,50.6-13.4,50.6-13.4c-12.5-7.3-18.9-21.8-22-36.4
		c13.1,21.7,35.8,36,61.5,36s48.4-14.3,61.5-36c-3.1,14.7-9.5,29.1-22,36.4c0,0,26.5,13.4,50.6,13.4
		c15.601,0,30.301-5.6,36.101-24.3C441.009,195.4,439.81,192.4,437.209,191z"/>
</g>
<g>
</g>
<g>
</g>
<g>
</g>
<g>
</g>
<g>
</g>
<g>
</g>
<g>
</g>
<g>
</g>
<g>
</g>
<g>
</g>
<g>
</g>
<g>
</g>
<g>
</g>
<g>
</g>
<g>
</g>
</svg>
